<?xml version="1.0" encoding="UTF-8"?>
<!DOCTYPE svg PUBLIC "-//W3C//DTD SVG 1.1//EN" "http://www.w3.org/Graphics/SVG/1.1/DTD/svg11.dtd">
<!-- Creator: CorelDRAW -->
<svg xmlns="http://www.w3.org/2000/svg" xml:space="preserve" width="170px" height="169px" version="1.1" style="shape-rendering:geometricPrecision; text-rendering:geometricPrecision; image-rendering:optimizeQuality; fill-rule:evenodd; clip-rule:evenodd"
viewBox="0 0 10041 10022"
 xmlns:xlink="http://www.w3.org/1999/xlink"
 xmlns:xodm="http://www.corel.com/coreldraw/odm/2003">
 <defs>
  <style type="text/css">
   <![CDATA[
    .fil1 {fill:black}
    .fil0 {fill:white}
   ]]>
  </style>
 </defs>
 <g id="Layer_x0020_1">
  <metadata id="CorelCorpID_0Corel-Layer"/>
  <g id="_105553345154464">
   <path class="fil0" d="M2246 595c-1677,303 -1673,1595 -1673,2784 0,727 -48,4010 31,4455 286,1625 1709,1622 2787,1622 2642,0 2733,245 2744,-1754 7,-1452 824,-2144 2294,-2137 825,4 1043,-379 1040,-1178 -5,-1368 289,-2790 -906,-3515 -618,-376 -1080,-312 -1914,-312 -723,0 -3950,-46 -4403,35z"/>
   <path class="fil1" d="M6545 9245c295,-943 -124,-1977 484,-2642 785,-858 1317,-184 2381,-713 -52,878 -562,1603 -964,2130 -282,370 -1200,1095 -1901,1225zm-4299 -8650c453,-81 3680,-35 4403,-35 834,0 1296,-64 1914,312 1195,725 901,2147 906,3515 3,799 -215,1182 -1040,1178 -1470,-7 -2287,685 -2294,2137 -11,1999 -102,1754 -2744,1754 -1078,0 -2501,3 -2787,-1622 -79,-445 -31,-3728 -31,-4455 0,-1189 -4,-2481 1673,-2784zm-31 -553c-2619,356 -2189,2973 -2189,5292 0,712 -67,1850 24,2513 194,1412 1250,2159 2808,2155 1637,-3 3174,179 4536,-488 1053,-515 1890,-1397 2342,-2635 276,-756 279,-1338 278,-2197 0,-1874 499,-4676 -2831,-4668 -870,2 -4418,-47 -4968,28z"/>
   <path class="fil0" d="M6545 9245c701,-130 1619,-855 1901,-1225 402,-527 912,-1252 964,-2130 -1064,529 -1596,-145 -2381,713 -608,665 -189,1699 -484,2642z"/>
  </g>
 </g>
</svg>
